M48
; DRILL file {KiCad 8.0.6} date 2024-10-21T09:57:49+0700
; FORMAT={-:-/ absolute / metric / decimal}
; #@! TF.CreationDate,2024-10-21T09:57:49+07:00
; #@! TF.GenerationSoftware,Kicad,Pcbnew,8.0.6
; #@! TF.FileFunction,NonPlated,1,2,NPTH
FMAT,2
METRIC
; #@! TA.AperFunction,NonPlated,NPTH,ComponentDrill
T1C1.750
; #@! TA.AperFunction,NonPlated,NPTH,ComponentDrill
T2C4.000
%
G90
G05
T1
X42.545Y-47.625
X42.545Y-66.675
X42.545Y-85.725
X42.545Y-104.775
X42.545Y-123.825
X52.705Y-47.625
X52.705Y-66.675
X52.705Y-85.725
X52.705Y-104.775
X52.705Y-123.825
X61.595Y-47.625
X61.595Y-66.675
X61.595Y-85.725
X61.595Y-104.775
X61.595Y-123.825
X71.755Y-47.625
X71.755Y-66.675
X71.755Y-85.725
X71.755Y-104.775
X71.755Y-123.825
X80.645Y-47.625
X80.645Y-66.675
X80.645Y-85.725
X80.645Y-104.775
X80.645Y-123.825
X90.805Y-47.625
X90.805Y-66.675
X90.805Y-85.725
X90.805Y-104.775
X90.805Y-123.825
X99.695Y-47.625
X99.695Y-66.675
X99.695Y-85.725
X99.695Y-104.775
X99.695Y-123.825
X109.855Y-47.625
X109.855Y-66.675
X109.855Y-85.725
X109.855Y-104.775
X109.855Y-123.825
X118.745Y-47.625
X118.745Y-66.675
X118.745Y-85.725
X118.745Y-104.775
X118.745Y-123.825
X128.905Y-47.625
X128.905Y-66.675
X128.905Y-85.725
X128.905Y-104.775
X128.905Y-123.825
T2
X47.625Y-47.625
X47.625Y-66.675
X47.625Y-85.725
X47.625Y-104.775
X47.625Y-123.825
X66.675Y-47.625
X66.675Y-66.675
X66.675Y-85.725
X66.675Y-104.775
X66.675Y-123.825
X85.725Y-47.625
X85.725Y-66.675
X85.725Y-85.725
X85.725Y-104.775
X85.725Y-123.825
X104.775Y-47.625
X104.775Y-66.675
X104.775Y-85.725
X104.775Y-104.775
X104.775Y-123.825
X123.825Y-47.625
X123.825Y-66.675
X123.825Y-85.725
X123.825Y-104.775
X123.825Y-123.825
M30
