%TF.GenerationSoftware,KiCad,Pcbnew,8.0.6*%
%TF.CreationDate,2024-10-21T09:57:29+07:00*%
%TF.ProjectId,CaiPad25_ESP32,43616950-6164-4323-955f-45535033322e,rev?*%
%TF.SameCoordinates,Original*%
%TF.FileFunction,Copper,L2,Bot*%
%TF.FilePolarity,Positive*%
%FSLAX46Y46*%
G04 Gerber Fmt 4.6, Leading zero omitted, Abs format (unit mm)*
G04 Created by KiCad (PCBNEW 8.0.6) date 2024-10-21 09:57:29*
%MOMM*%
%LPD*%
G01*
G04 APERTURE LIST*
%TA.AperFunction,ComponentPad*%
%ADD10C,2.500000*%
%TD*%
%TA.AperFunction,ComponentPad*%
%ADD11R,1.524000X1.524000*%
%TD*%
%TA.AperFunction,ComponentPad*%
%ADD12C,1.524000*%
%TD*%
%TA.AperFunction,ComponentPad*%
%ADD13R,1.700000X1.700000*%
%TD*%
%TA.AperFunction,ComponentPad*%
%ADD14O,1.700000X1.700000*%
%TD*%
%TA.AperFunction,ViaPad*%
%ADD15C,0.600000*%
%TD*%
%TA.AperFunction,Conductor*%
%ADD16C,0.200000*%
%TD*%
G04 APERTURE END LIST*
D10*
%TO.P,S7,1,1*%
%TO.N,Column 1*%
X62865000Y-64135000D03*
%TO.P,S7,2,2*%
%TO.N,Row 1*%
X69215000Y-61595000D03*
%TD*%
%TO.P,S12,1,1*%
%TO.N,Column 1*%
X62865000Y-83185000D03*
%TO.P,S12,2,2*%
%TO.N,Row 2*%
X69215000Y-80645000D03*
%TD*%
%TO.P,S4,1,1*%
%TO.N,Column 3*%
X100965000Y-45085000D03*
%TO.P,S4,2,2*%
%TO.N,Row 0*%
X107315000Y-42545000D03*
%TD*%
%TO.P,S16,1,1*%
%TO.N,Column 0*%
X43815000Y-102235000D03*
%TO.P,S16,2,2*%
%TO.N,Row 3*%
X50165000Y-99695000D03*
%TD*%
%TO.P,S14,1,1*%
%TO.N,Column 3*%
X100965000Y-83185000D03*
%TO.P,S14,2,2*%
%TO.N,Row 2*%
X107315000Y-80645000D03*
%TD*%
%TO.P,S21,1,1*%
%TO.N,Column 0*%
X43815000Y-121285000D03*
%TO.P,S21,2,2*%
%TO.N,Row 4*%
X50165000Y-118745000D03*
%TD*%
%TO.P,S5,1,1*%
%TO.N,Column 4*%
X120015000Y-45085000D03*
%TO.P,S5,2,2*%
%TO.N,Row 0*%
X126365000Y-42545000D03*
%TD*%
%TO.P,S3,1,1*%
%TO.N,Column 2*%
X81915000Y-45085000D03*
%TO.P,S3,2,2*%
%TO.N,Row 0*%
X88265000Y-42545000D03*
%TD*%
%TO.P,S1,1,1*%
%TO.N,Column 0*%
X43815000Y-45085000D03*
%TO.P,S1,2,2*%
%TO.N,Row 0*%
X50165000Y-42545000D03*
%TD*%
%TO.P,S13,1,1*%
%TO.N,Column 2*%
X81915000Y-83185000D03*
%TO.P,S13,2,2*%
%TO.N,Row 2*%
X88265000Y-80645000D03*
%TD*%
%TO.P,S11,1,1*%
%TO.N,Column 0*%
X43815000Y-83185000D03*
%TO.P,S11,2,2*%
%TO.N,Row 2*%
X50165000Y-80645000D03*
%TD*%
%TO.P,S22,1,1*%
%TO.N,Column 1*%
X62865000Y-121285000D03*
%TO.P,S22,2,2*%
%TO.N,Row 4*%
X69215000Y-118745000D03*
%TD*%
%TO.P,S17,1,1*%
%TO.N,Column 1*%
X62865000Y-102235000D03*
%TO.P,S17,2,2*%
%TO.N,Row 3*%
X69215000Y-99695000D03*
%TD*%
%TO.P,S2,1,1*%
%TO.N,Column 1*%
X62865000Y-45085000D03*
%TO.P,S2,2,2*%
%TO.N,Row 0*%
X69215000Y-42545000D03*
%TD*%
%TO.P,S24,1,1*%
%TO.N,Column 3*%
X100965000Y-121285000D03*
%TO.P,S24,2,2*%
%TO.N,Row 4*%
X107315000Y-118745000D03*
%TD*%
%TO.P,S9,1,1*%
%TO.N,Column 3*%
X100965000Y-64135000D03*
%TO.P,S9,2,2*%
%TO.N,Row 1*%
X107315000Y-61595000D03*
%TD*%
%TO.P,S20,1,1*%
%TO.N,Column 4*%
X120015000Y-102235000D03*
%TO.P,S20,2,2*%
%TO.N,Row 3*%
X126365000Y-99695000D03*
%TD*%
%TO.P,S18,1,1*%
%TO.N,Column 2*%
X81915000Y-102235000D03*
%TO.P,S18,2,2*%
%TO.N,Row 3*%
X88265000Y-99695000D03*
%TD*%
%TO.P,S25,1,1*%
%TO.N,Column 4*%
X120015000Y-121285000D03*
%TO.P,S25,2,2*%
%TO.N,Row 4*%
X126365000Y-118745000D03*
%TD*%
%TO.P,S8,1,1*%
%TO.N,Column 2*%
X81915000Y-64135000D03*
%TO.P,S8,2,2*%
%TO.N,Row 1*%
X88265000Y-61595000D03*
%TD*%
%TO.P,S23,1,1*%
%TO.N,Column 2*%
X81915000Y-121285000D03*
%TO.P,S23,2,2*%
%TO.N,Row 4*%
X88265000Y-118745000D03*
%TD*%
D11*
%TO.P,U1,1,EN*%
%TO.N,unconnected-(U1-EN-Pad1)*%
X166714214Y-83274214D03*
D12*
%TO.P,U1,2,SENSOR_VP*%
%TO.N,unconnected-(U1-SENSOR_VP-Pad2)*%
X166714214Y-80734214D03*
%TO.P,U1,3,SENSOR_VN*%
%TO.N,unconnected-(U1-SENSOR_VN-Pad3)*%
X166714214Y-78194214D03*
%TO.P,U1,4,IO34*%
%TO.N,unconnected-(U1-IO34-Pad4)*%
X166714214Y-75654214D03*
%TO.P,U1,5,IO35*%
%TO.N,unconnected-(U1-IO35-Pad5)*%
X166714214Y-73114214D03*
%TO.P,U1,6,IO32*%
%TO.N,unconnected-(U1-IO32-Pad6)*%
X166714214Y-70574214D03*
%TO.P,U1,7,IO33*%
%TO.N,unconnected-(U1-IO33-Pad7)*%
X166714214Y-68034214D03*
%TO.P,U1,8,IO25*%
%TO.N,Column 4*%
X166714214Y-65494214D03*
%TO.P,U1,9,IO26*%
%TO.N,unconnected-(U1-IO26-Pad9)*%
X166714214Y-62954214D03*
%TO.P,U1,10,IO27*%
%TO.N,unconnected-(U1-IO27-Pad10)*%
X166714214Y-60414214D03*
%TO.P,U1,11,IO14*%
%TO.N,Row 2*%
X166714214Y-57874214D03*
%TO.P,U1,12,IO12*%
%TO.N,Row 1*%
X166714214Y-55334214D03*
%TO.P,U1,13,IO13*%
%TO.N,Row 0*%
X166714214Y-52794214D03*
%TO.P,U1,14,GND*%
%TO.N,unconnected-(U1-GND-Pad14)*%
X166714214Y-50254214D03*
%TO.P,U1,15,VIN*%
%TO.N,unconnected-(U1-VIN-Pad15)*%
X166714214Y-47714214D03*
%TO.P,U1,16,3V3*%
%TO.N,Net-(J1-VCC)*%
X141314214Y-47714214D03*
%TO.P,U1,17,GND*%
%TO.N,Net-(J1-GND)*%
X141314214Y-50254214D03*
%TO.P,U1,18,IO15*%
%TO.N,Row 3*%
X141314214Y-52794214D03*
%TO.P,U1,19,IO2*%
%TO.N,unconnected-(U1-IO2-Pad19)*%
X141314214Y-55334214D03*
%TO.P,U1,20,IO4*%
%TO.N,unconnected-(U1-IO4-Pad20)*%
X141314214Y-57874214D03*
%TO.P,U1,21,IO16*%
%TO.N,Net-(J1-SDA)*%
X141314214Y-60414214D03*
%TO.P,U1,22,IO17*%
%TO.N,Net-(J1-SCL)*%
X141314214Y-62954214D03*
%TO.P,U1,23,IO5*%
%TO.N,unconnected-(U1-IO5-Pad23)*%
X141314214Y-65494214D03*
%TO.P,U1,24,IO18*%
%TO.N,Row 4*%
X141314214Y-68034214D03*
%TO.P,U1,25,IO19*%
%TO.N,Column 0*%
X141314214Y-70574214D03*
%TO.P,U1,26,IO21*%
%TO.N,Column 1*%
X141314214Y-73114214D03*
%TO.P,U1,27,RXD0/IO3*%
%TO.N,unconnected-(U1-RXD0{slash}IO3-Pad27)*%
X141314214Y-75654214D03*
%TO.P,U1,28,TXD0/IO1*%
%TO.N,unconnected-(U1-TXD0{slash}IO1-Pad28)*%
X141314214Y-78194214D03*
%TO.P,U1,29,IO22*%
%TO.N,Column 2*%
X141314214Y-80734214D03*
%TO.P,U1,30,IO23*%
%TO.N,Column 3*%
X141314214Y-83274214D03*
%TD*%
D10*
%TO.P,S10,1,1*%
%TO.N,Column 4*%
X120015000Y-64135000D03*
%TO.P,S10,2,2*%
%TO.N,Row 1*%
X126365000Y-61595000D03*
%TD*%
%TO.P,S15,1,1*%
%TO.N,Column 4*%
X120015000Y-83185000D03*
%TO.P,S15,2,2*%
%TO.N,Row 2*%
X126365000Y-80645000D03*
%TD*%
%TO.P,S19,1,1*%
%TO.N,Column 3*%
X100965000Y-102235000D03*
%TO.P,S19,2,2*%
%TO.N,Row 3*%
X107315000Y-99695000D03*
%TD*%
%TO.P,S6,1,1*%
%TO.N,Column 0*%
X43815000Y-64135000D03*
%TO.P,S6,2,2*%
%TO.N,Row 1*%
X50165000Y-61595000D03*
%TD*%
D13*
%TO.P,J1,1,GND*%
%TO.N,Net-(J1-GND)*%
X150190000Y-95670000D03*
D14*
%TO.P,J1,2,VCC*%
%TO.N,Net-(J1-VCC)*%
X152730000Y-95670000D03*
%TO.P,J1,3,SCL*%
%TO.N,Net-(J1-SCL)*%
X155270000Y-95670000D03*
%TO.P,J1,4,SDA*%
%TO.N,Net-(J1-SDA)*%
X157810000Y-95670000D03*
%TD*%
D15*
%TO.N,Net-(J1-GND)*%
X156400000Y-67200000D03*
X160200000Y-67200000D03*
%TO.N,Row 3*%
X137200000Y-95800000D03*
X140400000Y-53400000D03*
%TD*%
D16*
%TO.N,Net-(J1-GND)*%
X160200000Y-67200000D02*
X156400000Y-67200000D01*
%TO.N,Row 3*%
X137200000Y-56600000D02*
X140400000Y-53400000D01*
X137200000Y-95800000D02*
X137200000Y-56600000D01*
%TO.N,Column 2*%
X82200000Y-129800000D02*
X137800000Y-129800000D01*
X81915000Y-129515000D02*
X82200000Y-129800000D01*
X81915000Y-45085000D02*
X81915000Y-121285000D01*
X137800000Y-129800000D02*
X144600000Y-123000000D01*
X144600000Y-84020000D02*
X141314214Y-80734214D01*
X81915000Y-121285000D02*
X81915000Y-129515000D01*
X144600000Y-123000000D02*
X144600000Y-84020000D01*
%TO.N,Column 0*%
X43815000Y-45085000D02*
X43815000Y-121285000D01*
X142376214Y-69512214D02*
X141314214Y-70574214D01*
X142376214Y-47274319D02*
X142376214Y-69512214D01*
X43815000Y-39615000D02*
X43800000Y-39600000D01*
X43815000Y-45085000D02*
X43815000Y-39615000D01*
X134701895Y-39600000D02*
X142376214Y-47274319D01*
X43800000Y-39600000D02*
X134701895Y-39600000D01*
%TO.N,Column 3*%
X100965000Y-127165000D02*
X101200000Y-127400000D01*
X132600000Y-127400000D02*
X132800000Y-127200000D01*
X100965000Y-121285000D02*
X100965000Y-127165000D01*
X133200000Y-127200000D02*
X141314214Y-119085786D01*
X101200000Y-127400000D02*
X132600000Y-127400000D01*
X132800000Y-127200000D02*
X133200000Y-127200000D01*
X141314214Y-119085786D02*
X141314214Y-83274214D01*
X100965000Y-45085000D02*
X100965000Y-121285000D01*
%TO.N,Column 1*%
X140252214Y-94947786D02*
X140252214Y-74176214D01*
X130800000Y-40600000D02*
X135200000Y-45000000D01*
X62865000Y-121285000D02*
X62865000Y-45085000D01*
X140252214Y-74176214D02*
X141314214Y-73114214D01*
X62865000Y-45085000D02*
X62865000Y-40665000D01*
X62865000Y-40665000D02*
X62800000Y-40600000D01*
X62800000Y-40600000D02*
X130800000Y-40600000D01*
X135200000Y-100000000D02*
X140252214Y-94947786D01*
X135200000Y-45000000D02*
X135200000Y-100000000D01*
%TO.N,Column 4*%
X120015000Y-45085000D02*
X120015000Y-121285000D01*
%TO.N,Row 1*%
X126365000Y-61595000D02*
X126365000Y-59435000D01*
%TD*%
M02*
