%TF.GenerationSoftware,KiCad,Pcbnew,8.0.6*%
%TF.CreationDate,2024-10-21T09:57:29+07:00*%
%TF.ProjectId,CaiPad25_ESP32,43616950-6164-4323-955f-45535033322e,rev?*%
%TF.SameCoordinates,Original*%
%TF.FileFunction,Soldermask,Top*%
%TF.FilePolarity,Negative*%
%FSLAX46Y46*%
G04 Gerber Fmt 4.6, Leading zero omitted, Abs format (unit mm)*
G04 Created by KiCad (PCBNEW 8.0.6) date 2024-10-21 09:57:29*
%MOMM*%
%LPD*%
G01*
G04 APERTURE LIST*
%ADD10C,1.750000*%
%ADD11C,4.000000*%
%ADD12C,2.500000*%
%ADD13R,1.524000X1.524000*%
%ADD14C,1.524000*%
%ADD15R,1.700000X1.700000*%
%ADD16O,1.700000X1.700000*%
G04 APERTURE END LIST*
D10*
%TO.C,S7*%
X61595000Y-66675000D03*
D11*
X66675000Y-66675000D03*
D10*
X71755000Y-66675000D03*
D12*
X62865000Y-64135000D03*
X69215000Y-61595000D03*
%TD*%
D10*
%TO.C,S12*%
X61595000Y-85725000D03*
D11*
X66675000Y-85725000D03*
D10*
X71755000Y-85725000D03*
D12*
X62865000Y-83185000D03*
X69215000Y-80645000D03*
%TD*%
D10*
%TO.C,S4*%
X99695000Y-47625000D03*
D11*
X104775000Y-47625000D03*
D10*
X109855000Y-47625000D03*
D12*
X100965000Y-45085000D03*
X107315000Y-42545000D03*
%TD*%
D10*
%TO.C,S16*%
X42545000Y-104775000D03*
D11*
X47625000Y-104775000D03*
D10*
X52705000Y-104775000D03*
D12*
X43815000Y-102235000D03*
X50165000Y-99695000D03*
%TD*%
D10*
%TO.C,S14*%
X99695000Y-85725000D03*
D11*
X104775000Y-85725000D03*
D10*
X109855000Y-85725000D03*
D12*
X100965000Y-83185000D03*
X107315000Y-80645000D03*
%TD*%
D10*
%TO.C,S21*%
X42545000Y-123825000D03*
D11*
X47625000Y-123825000D03*
D10*
X52705000Y-123825000D03*
D12*
X43815000Y-121285000D03*
X50165000Y-118745000D03*
%TD*%
D10*
%TO.C,S5*%
X118745000Y-47625000D03*
D11*
X123825000Y-47625000D03*
D10*
X128905000Y-47625000D03*
D12*
X120015000Y-45085000D03*
X126365000Y-42545000D03*
%TD*%
D10*
%TO.C,S3*%
X80645000Y-47625000D03*
D11*
X85725000Y-47625000D03*
D10*
X90805000Y-47625000D03*
D12*
X81915000Y-45085000D03*
X88265000Y-42545000D03*
%TD*%
D10*
%TO.C,S1*%
X42545000Y-47625000D03*
D11*
X47625000Y-47625000D03*
D10*
X52705000Y-47625000D03*
D12*
X43815000Y-45085000D03*
X50165000Y-42545000D03*
%TD*%
D10*
%TO.C,S13*%
X80645000Y-85725000D03*
D11*
X85725000Y-85725000D03*
D10*
X90805000Y-85725000D03*
D12*
X81915000Y-83185000D03*
X88265000Y-80645000D03*
%TD*%
D10*
%TO.C,S11*%
X42545000Y-85725000D03*
D11*
X47625000Y-85725000D03*
D10*
X52705000Y-85725000D03*
D12*
X43815000Y-83185000D03*
X50165000Y-80645000D03*
%TD*%
D10*
%TO.C,S22*%
X61595000Y-123825000D03*
D11*
X66675000Y-123825000D03*
D10*
X71755000Y-123825000D03*
D12*
X62865000Y-121285000D03*
X69215000Y-118745000D03*
%TD*%
D10*
%TO.C,S17*%
X61595000Y-104775000D03*
D11*
X66675000Y-104775000D03*
D10*
X71755000Y-104775000D03*
D12*
X62865000Y-102235000D03*
X69215000Y-99695000D03*
%TD*%
D10*
%TO.C,S2*%
X61595000Y-47625000D03*
D11*
X66675000Y-47625000D03*
D10*
X71755000Y-47625000D03*
D12*
X62865000Y-45085000D03*
X69215000Y-42545000D03*
%TD*%
D10*
%TO.C,S24*%
X99695000Y-123825000D03*
D11*
X104775000Y-123825000D03*
D10*
X109855000Y-123825000D03*
D12*
X100965000Y-121285000D03*
X107315000Y-118745000D03*
%TD*%
D10*
%TO.C,S9*%
X99695000Y-66675000D03*
D11*
X104775000Y-66675000D03*
D10*
X109855000Y-66675000D03*
D12*
X100965000Y-64135000D03*
X107315000Y-61595000D03*
%TD*%
D10*
%TO.C,S20*%
X118745000Y-104775000D03*
D11*
X123825000Y-104775000D03*
D10*
X128905000Y-104775000D03*
D12*
X120015000Y-102235000D03*
X126365000Y-99695000D03*
%TD*%
D10*
%TO.C,S18*%
X80645000Y-104775000D03*
D11*
X85725000Y-104775000D03*
D10*
X90805000Y-104775000D03*
D12*
X81915000Y-102235000D03*
X88265000Y-99695000D03*
%TD*%
D10*
%TO.C,S25*%
X118745000Y-123825000D03*
D11*
X123825000Y-123825000D03*
D10*
X128905000Y-123825000D03*
D12*
X120015000Y-121285000D03*
X126365000Y-118745000D03*
%TD*%
D10*
%TO.C,S8*%
X80645000Y-66675000D03*
D11*
X85725000Y-66675000D03*
D10*
X90805000Y-66675000D03*
D12*
X81915000Y-64135000D03*
X88265000Y-61595000D03*
%TD*%
D10*
%TO.C,S23*%
X80645000Y-123825000D03*
D11*
X85725000Y-123825000D03*
D10*
X90805000Y-123825000D03*
D12*
X81915000Y-121285000D03*
X88265000Y-118745000D03*
%TD*%
D13*
%TO.C,U1*%
X166714214Y-83274214D03*
D14*
X166714214Y-80734214D03*
X166714214Y-78194214D03*
X166714214Y-75654214D03*
X166714214Y-73114214D03*
X166714214Y-70574214D03*
X166714214Y-68034214D03*
X166714214Y-65494214D03*
X166714214Y-62954214D03*
X166714214Y-60414214D03*
X166714214Y-57874214D03*
X166714214Y-55334214D03*
X166714214Y-52794214D03*
X166714214Y-50254214D03*
X166714214Y-47714214D03*
X141314214Y-47714214D03*
X141314214Y-50254214D03*
X141314214Y-52794214D03*
X141314214Y-55334214D03*
X141314214Y-57874214D03*
X141314214Y-60414214D03*
X141314214Y-62954214D03*
X141314214Y-65494214D03*
X141314214Y-68034214D03*
X141314214Y-70574214D03*
X141314214Y-73114214D03*
X141314214Y-75654214D03*
X141314214Y-78194214D03*
X141314214Y-80734214D03*
X141314214Y-83274214D03*
%TD*%
D10*
%TO.C,S10*%
X118745000Y-66675000D03*
D11*
X123825000Y-66675000D03*
D10*
X128905000Y-66675000D03*
D12*
X120015000Y-64135000D03*
X126365000Y-61595000D03*
%TD*%
D10*
%TO.C,S15*%
X118745000Y-85725000D03*
D11*
X123825000Y-85725000D03*
D10*
X128905000Y-85725000D03*
D12*
X120015000Y-83185000D03*
X126365000Y-80645000D03*
%TD*%
D10*
%TO.C,S19*%
X99695000Y-104775000D03*
D11*
X104775000Y-104775000D03*
D10*
X109855000Y-104775000D03*
D12*
X100965000Y-102235000D03*
X107315000Y-99695000D03*
%TD*%
D10*
%TO.C,S6*%
X42545000Y-66675000D03*
D11*
X47625000Y-66675000D03*
D10*
X52705000Y-66675000D03*
D12*
X43815000Y-64135000D03*
X50165000Y-61595000D03*
%TD*%
D15*
%TO.C,J1*%
X150190000Y-95670000D03*
D16*
X152730000Y-95670000D03*
X155270000Y-95670000D03*
X157810000Y-95670000D03*
%TD*%
M02*
