%TF.GenerationSoftware,KiCad,Pcbnew,8.0.6*%
%TF.CreationDate,2024-10-21T09:58:38+07:00*%
%TF.ProjectId,CaiPad25_ESP32,43616950-6164-4323-955f-45535033322e,rev?*%
%TF.SameCoordinates,Original*%
%TF.FileFunction,Copper,L1,Top*%
%TF.FilePolarity,Positive*%
%FSLAX46Y46*%
G04 Gerber Fmt 4.6, Leading zero omitted, Abs format (unit mm)*
G04 Created by KiCad (PCBNEW 8.0.6) date 2024-10-21 09:58:38*
%MOMM*%
%LPD*%
G01*
G04 APERTURE LIST*
%ADD10C,0.300000*%
%TA.AperFunction,NonConductor*%
%ADD11C,0.300000*%
%TD*%
%TA.AperFunction,ComponentPad*%
%ADD12C,2.500000*%
%TD*%
%TA.AperFunction,ComponentPad*%
%ADD13R,1.524000X1.524000*%
%TD*%
%TA.AperFunction,ComponentPad*%
%ADD14C,1.524000*%
%TD*%
%TA.AperFunction,ComponentPad*%
%ADD15R,1.700000X1.700000*%
%TD*%
%TA.AperFunction,ComponentPad*%
%ADD16O,1.700000X1.700000*%
%TD*%
%TA.AperFunction,ViaPad*%
%ADD17C,0.600000*%
%TD*%
%TA.AperFunction,Conductor*%
%ADD18C,0.200000*%
%TD*%
%ADD19C,0.300000*%
%ADD20C,0.350000*%
G04 APERTURE END LIST*
D10*
D11*
X149225939Y-129531542D02*
X149083082Y-129674400D01*
X149083082Y-129674400D02*
X148654510Y-129817257D01*
X148654510Y-129817257D02*
X148368796Y-129817257D01*
X148368796Y-129817257D02*
X147940225Y-129674400D01*
X147940225Y-129674400D02*
X147654510Y-129388685D01*
X147654510Y-129388685D02*
X147511653Y-129102971D01*
X147511653Y-129102971D02*
X147368796Y-128531542D01*
X147368796Y-128531542D02*
X147368796Y-128102971D01*
X147368796Y-128102971D02*
X147511653Y-127531542D01*
X147511653Y-127531542D02*
X147654510Y-127245828D01*
X147654510Y-127245828D02*
X147940225Y-126960114D01*
X147940225Y-126960114D02*
X148368796Y-126817257D01*
X148368796Y-126817257D02*
X148654510Y-126817257D01*
X148654510Y-126817257D02*
X149083082Y-126960114D01*
X149083082Y-126960114D02*
X149225939Y-127102971D01*
X151797368Y-129817257D02*
X151797368Y-128245828D01*
X151797368Y-128245828D02*
X151654510Y-127960114D01*
X151654510Y-127960114D02*
X151368796Y-127817257D01*
X151368796Y-127817257D02*
X150797368Y-127817257D01*
X150797368Y-127817257D02*
X150511653Y-127960114D01*
X151797368Y-129674400D02*
X151511653Y-129817257D01*
X151511653Y-129817257D02*
X150797368Y-129817257D01*
X150797368Y-129817257D02*
X150511653Y-129674400D01*
X150511653Y-129674400D02*
X150368796Y-129388685D01*
X150368796Y-129388685D02*
X150368796Y-129102971D01*
X150368796Y-129102971D02*
X150511653Y-128817257D01*
X150511653Y-128817257D02*
X150797368Y-128674400D01*
X150797368Y-128674400D02*
X151511653Y-128674400D01*
X151511653Y-128674400D02*
X151797368Y-128531542D01*
X153225939Y-129817257D02*
X153225939Y-127817257D01*
X153225939Y-126817257D02*
X153083082Y-126960114D01*
X153083082Y-126960114D02*
X153225939Y-127102971D01*
X153225939Y-127102971D02*
X153368796Y-126960114D01*
X153368796Y-126960114D02*
X153225939Y-126817257D01*
X153225939Y-126817257D02*
X153225939Y-127102971D01*
X154511653Y-127102971D02*
X154654510Y-126960114D01*
X154654510Y-126960114D02*
X154940225Y-126817257D01*
X154940225Y-126817257D02*
X155654510Y-126817257D01*
X155654510Y-126817257D02*
X155940225Y-126960114D01*
X155940225Y-126960114D02*
X156083082Y-127102971D01*
X156083082Y-127102971D02*
X156225939Y-127388685D01*
X156225939Y-127388685D02*
X156225939Y-127674400D01*
X156225939Y-127674400D02*
X156083082Y-128102971D01*
X156083082Y-128102971D02*
X154368796Y-129817257D01*
X154368796Y-129817257D02*
X156225939Y-129817257D01*
X158940225Y-126817257D02*
X157511653Y-126817257D01*
X157511653Y-126817257D02*
X157368796Y-128245828D01*
X157368796Y-128245828D02*
X157511653Y-128102971D01*
X157511653Y-128102971D02*
X157797368Y-127960114D01*
X157797368Y-127960114D02*
X158511653Y-127960114D01*
X158511653Y-127960114D02*
X158797368Y-128102971D01*
X158797368Y-128102971D02*
X158940225Y-128245828D01*
X158940225Y-128245828D02*
X159083082Y-128531542D01*
X159083082Y-128531542D02*
X159083082Y-129245828D01*
X159083082Y-129245828D02*
X158940225Y-129531542D01*
X158940225Y-129531542D02*
X158797368Y-129674400D01*
X158797368Y-129674400D02*
X158511653Y-129817257D01*
X158511653Y-129817257D02*
X157797368Y-129817257D01*
X157797368Y-129817257D02*
X157511653Y-129674400D01*
X157511653Y-129674400D02*
X157368796Y-129531542D01*
D12*
%TO.P,S7,1,1*%
%TO.N,Column 1*%
X62865000Y-64135000D03*
%TO.P,S7,2,2*%
%TO.N,Row 1*%
X69215000Y-61595000D03*
%TD*%
%TO.P,S12,1,1*%
%TO.N,Column 1*%
X62865000Y-83185000D03*
%TO.P,S12,2,2*%
%TO.N,Row 2*%
X69215000Y-80645000D03*
%TD*%
%TO.P,S4,1,1*%
%TO.N,Column 3*%
X100965000Y-45085000D03*
%TO.P,S4,2,2*%
%TO.N,Row 0*%
X107315000Y-42545000D03*
%TD*%
%TO.P,S16,1,1*%
%TO.N,Column 0*%
X43815000Y-102235000D03*
%TO.P,S16,2,2*%
%TO.N,Row 3*%
X50165000Y-99695000D03*
%TD*%
%TO.P,S14,1,1*%
%TO.N,Column 3*%
X100965000Y-83185000D03*
%TO.P,S14,2,2*%
%TO.N,Row 2*%
X107315000Y-80645000D03*
%TD*%
%TO.P,S21,1,1*%
%TO.N,Column 0*%
X43815000Y-121285000D03*
%TO.P,S21,2,2*%
%TO.N,Row 4*%
X50165000Y-118745000D03*
%TD*%
%TO.P,S5,1,1*%
%TO.N,Column 4*%
X120015000Y-45085000D03*
%TO.P,S5,2,2*%
%TO.N,Row 0*%
X126365000Y-42545000D03*
%TD*%
%TO.P,S3,1,1*%
%TO.N,Column 2*%
X81915000Y-45085000D03*
%TO.P,S3,2,2*%
%TO.N,Row 0*%
X88265000Y-42545000D03*
%TD*%
%TO.P,S1,1,1*%
%TO.N,Column 0*%
X43815000Y-45085000D03*
%TO.P,S1,2,2*%
%TO.N,Row 0*%
X50165000Y-42545000D03*
%TD*%
%TO.P,S13,1,1*%
%TO.N,Column 2*%
X81915000Y-83185000D03*
%TO.P,S13,2,2*%
%TO.N,Row 2*%
X88265000Y-80645000D03*
%TD*%
%TO.P,S11,1,1*%
%TO.N,Column 0*%
X43815000Y-83185000D03*
%TO.P,S11,2,2*%
%TO.N,Row 2*%
X50165000Y-80645000D03*
%TD*%
%TO.P,S22,1,1*%
%TO.N,Column 1*%
X62865000Y-121285000D03*
%TO.P,S22,2,2*%
%TO.N,Row 4*%
X69215000Y-118745000D03*
%TD*%
%TO.P,S17,1,1*%
%TO.N,Column 1*%
X62865000Y-102235000D03*
%TO.P,S17,2,2*%
%TO.N,Row 3*%
X69215000Y-99695000D03*
%TD*%
%TO.P,S2,1,1*%
%TO.N,Column 1*%
X62865000Y-45085000D03*
%TO.P,S2,2,2*%
%TO.N,Row 0*%
X69215000Y-42545000D03*
%TD*%
%TO.P,S24,1,1*%
%TO.N,Column 3*%
X100965000Y-121285000D03*
%TO.P,S24,2,2*%
%TO.N,Row 4*%
X107315000Y-118745000D03*
%TD*%
%TO.P,S9,1,1*%
%TO.N,Column 3*%
X100965000Y-64135000D03*
%TO.P,S9,2,2*%
%TO.N,Row 1*%
X107315000Y-61595000D03*
%TD*%
%TO.P,S20,1,1*%
%TO.N,Column 4*%
X120015000Y-102235000D03*
%TO.P,S20,2,2*%
%TO.N,Row 3*%
X126365000Y-99695000D03*
%TD*%
%TO.P,S18,1,1*%
%TO.N,Column 2*%
X81915000Y-102235000D03*
%TO.P,S18,2,2*%
%TO.N,Row 3*%
X88265000Y-99695000D03*
%TD*%
%TO.P,S25,1,1*%
%TO.N,Column 4*%
X120015000Y-121285000D03*
%TO.P,S25,2,2*%
%TO.N,Row 4*%
X126365000Y-118745000D03*
%TD*%
%TO.P,S8,1,1*%
%TO.N,Column 2*%
X81915000Y-64135000D03*
%TO.P,S8,2,2*%
%TO.N,Row 1*%
X88265000Y-61595000D03*
%TD*%
%TO.P,S23,1,1*%
%TO.N,Column 2*%
X81915000Y-121285000D03*
%TO.P,S23,2,2*%
%TO.N,Row 4*%
X88265000Y-118745000D03*
%TD*%
D13*
%TO.P,U1,1,EN*%
%TO.N,unconnected-(U1-EN-Pad1)*%
X166714214Y-83274214D03*
D14*
%TO.P,U1,2,SENSOR_VP*%
%TO.N,unconnected-(U1-SENSOR_VP-Pad2)*%
X166714214Y-80734214D03*
%TO.P,U1,3,SENSOR_VN*%
%TO.N,unconnected-(U1-SENSOR_VN-Pad3)*%
X166714214Y-78194214D03*
%TO.P,U1,4,IO34*%
%TO.N,unconnected-(U1-IO34-Pad4)*%
X166714214Y-75654214D03*
%TO.P,U1,5,IO35*%
%TO.N,unconnected-(U1-IO35-Pad5)*%
X166714214Y-73114214D03*
%TO.P,U1,6,IO32*%
%TO.N,unconnected-(U1-IO32-Pad6)*%
X166714214Y-70574214D03*
%TO.P,U1,7,IO33*%
%TO.N,unconnected-(U1-IO33-Pad7)*%
X166714214Y-68034214D03*
%TO.P,U1,8,IO25*%
%TO.N,Column 4*%
X166714214Y-65494214D03*
%TO.P,U1,9,IO26*%
%TO.N,unconnected-(U1-IO26-Pad9)*%
X166714214Y-62954214D03*
%TO.P,U1,10,IO27*%
%TO.N,unconnected-(U1-IO27-Pad10)*%
X166714214Y-60414214D03*
%TO.P,U1,11,IO14*%
%TO.N,Row 2*%
X166714214Y-57874214D03*
%TO.P,U1,12,IO12*%
%TO.N,Row 1*%
X166714214Y-55334214D03*
%TO.P,U1,13,IO13*%
%TO.N,Row 0*%
X166714214Y-52794214D03*
%TO.P,U1,14,GND*%
%TO.N,unconnected-(U1-GND-Pad14)*%
X166714214Y-50254214D03*
%TO.P,U1,15,VIN*%
%TO.N,unconnected-(U1-VIN-Pad15)*%
X166714214Y-47714214D03*
%TO.P,U1,16,3V3*%
%TO.N,Net-(J1-VCC)*%
X141314214Y-47714214D03*
%TO.P,U1,17,GND*%
%TO.N,Net-(J1-GND)*%
X141314214Y-50254214D03*
%TO.P,U1,18,IO15*%
%TO.N,Row 3*%
X141314214Y-52794214D03*
%TO.P,U1,19,IO2*%
%TO.N,unconnected-(U1-IO2-Pad19)*%
X141314214Y-55334214D03*
%TO.P,U1,20,IO4*%
%TO.N,unconnected-(U1-IO4-Pad20)*%
X141314214Y-57874214D03*
%TO.P,U1,21,IO16*%
%TO.N,Net-(J1-SDA)*%
X141314214Y-60414214D03*
%TO.P,U1,22,IO17*%
%TO.N,Net-(J1-SCL)*%
X141314214Y-62954214D03*
%TO.P,U1,23,IO5*%
%TO.N,unconnected-(U1-IO5-Pad23)*%
X141314214Y-65494214D03*
%TO.P,U1,24,IO18*%
%TO.N,Row 4*%
X141314214Y-68034214D03*
%TO.P,U1,25,IO19*%
%TO.N,Column 0*%
X141314214Y-70574214D03*
%TO.P,U1,26,IO21*%
%TO.N,Column 1*%
X141314214Y-73114214D03*
%TO.P,U1,27,RXD0/IO3*%
%TO.N,unconnected-(U1-RXD0{slash}IO3-Pad27)*%
X141314214Y-75654214D03*
%TO.P,U1,28,TXD0/IO1*%
%TO.N,unconnected-(U1-TXD0{slash}IO1-Pad28)*%
X141314214Y-78194214D03*
%TO.P,U1,29,IO22*%
%TO.N,Column 2*%
X141314214Y-80734214D03*
%TO.P,U1,30,IO23*%
%TO.N,Column 3*%
X141314214Y-83274214D03*
%TD*%
D12*
%TO.P,S10,1,1*%
%TO.N,Column 4*%
X120015000Y-64135000D03*
%TO.P,S10,2,2*%
%TO.N,Row 1*%
X126365000Y-61595000D03*
%TD*%
%TO.P,S15,1,1*%
%TO.N,Column 4*%
X120015000Y-83185000D03*
%TO.P,S15,2,2*%
%TO.N,Row 2*%
X126365000Y-80645000D03*
%TD*%
%TO.P,S19,1,1*%
%TO.N,Column 3*%
X100965000Y-102235000D03*
%TO.P,S19,2,2*%
%TO.N,Row 3*%
X107315000Y-99695000D03*
%TD*%
%TO.P,S6,1,1*%
%TO.N,Column 0*%
X43815000Y-64135000D03*
%TO.P,S6,2,2*%
%TO.N,Row 1*%
X50165000Y-61595000D03*
%TD*%
D15*
%TO.P,J1,1,GND*%
%TO.N,Net-(J1-GND)*%
X150190000Y-95670000D03*
D16*
%TO.P,J1,2,VCC*%
%TO.N,Net-(J1-VCC)*%
X152730000Y-95670000D03*
%TO.P,J1,3,SCL*%
%TO.N,Net-(J1-SCL)*%
X155270000Y-95670000D03*
%TO.P,J1,4,SDA*%
%TO.N,Net-(J1-SDA)*%
X157810000Y-95670000D03*
%TD*%
D17*
%TO.N,Net-(J1-GND)*%
X156400000Y-67200000D03*
X160200000Y-67200000D03*
%TO.N,Row 3*%
X137200000Y-95800000D03*
X140400000Y-53400000D03*
%TD*%
D18*
%TO.N,Net-(J1-SDA)*%
X145800000Y-83660000D02*
X145800000Y-64900000D01*
X145800000Y-64900000D02*
X141314214Y-60414214D01*
X157810000Y-95670000D02*
X145800000Y-83660000D01*
%TO.N,Net-(J1-SCL)*%
X144000000Y-65640000D02*
X141314214Y-62954214D01*
X144000000Y-84400000D02*
X144000000Y-65640000D01*
X155270000Y-95670000D02*
X144000000Y-84400000D01*
%TO.N,Net-(J1-VCC)*%
X158286346Y-96820000D02*
X158960000Y-96146346D01*
X158960000Y-65360000D02*
X141314214Y-47714214D01*
X152730000Y-95670000D02*
X153880000Y-96820000D01*
X153880000Y-96820000D02*
X158286346Y-96820000D01*
X158960000Y-96146346D02*
X158960000Y-65360000D01*
%TO.N,Net-(J1-GND)*%
X150190000Y-95670000D02*
X151740000Y-97220000D01*
X158452032Y-97220000D02*
X160200000Y-95472032D01*
X160200000Y-95472032D02*
X160200000Y-67200000D01*
X151740000Y-97220000D02*
X158452032Y-97220000D01*
X156400000Y-65340000D02*
X141314214Y-50254214D01*
X156400000Y-67200000D02*
X156400000Y-65340000D01*
%TO.N,Row 3*%
X126365000Y-99695000D02*
X133305000Y-99695000D01*
X133305000Y-99695000D02*
X137200000Y-95800000D01*
X50165000Y-99695000D02*
X126365000Y-99695000D01*
%TO.N,Row 4*%
X50165000Y-118745000D02*
X126365000Y-118745000D01*
X137800000Y-107310000D02*
X137800000Y-71548428D01*
X137800000Y-71548428D02*
X141314214Y-68034214D01*
X126365000Y-118745000D02*
X137800000Y-107310000D01*
%TO.N,Row 0*%
X154805786Y-52794214D02*
X166714214Y-52794214D01*
X144145000Y-42545000D02*
X154400000Y-52800000D01*
X154800000Y-52800000D02*
X154805786Y-52794214D01*
X126365000Y-42545000D02*
X144145000Y-42545000D01*
X50165000Y-42545000D02*
X126365000Y-42545000D01*
X154400000Y-52800000D02*
X154800000Y-52800000D01*
%TO.N,Column 4*%
X165652214Y-90585504D02*
X165652214Y-66556214D01*
X165652214Y-66556214D02*
X166714214Y-65494214D01*
X120015000Y-121285000D02*
X134952718Y-121285000D01*
X134952718Y-121285000D02*
X165652214Y-90585504D01*
%TO.N,Row 2*%
X144600000Y-45600000D02*
X156874214Y-57874214D01*
X50165000Y-80645000D02*
X126365000Y-80645000D01*
X139800000Y-67210000D02*
X139800000Y-46600000D01*
X139800000Y-46600000D02*
X140800000Y-45600000D01*
X140800000Y-45600000D02*
X144600000Y-45600000D01*
X156874214Y-57874214D02*
X166714214Y-57874214D01*
X126365000Y-80645000D02*
X139800000Y-67210000D01*
%TO.N,Row 1*%
X155534214Y-55334214D02*
X166714214Y-55334214D01*
X138767786Y-49192214D02*
X138767786Y-45832214D01*
X144800000Y-44600000D02*
X155534214Y-55334214D01*
X50165000Y-61595000D02*
X126365000Y-61595000D01*
X140000000Y-44600000D02*
X144800000Y-44600000D01*
X126365000Y-61595000D02*
X138767786Y-49192214D01*
X138767786Y-45832214D02*
X140000000Y-44600000D01*
%TD*%
D19*
X156400000Y-67200000D03*
X160200000Y-67200000D03*
X137200000Y-95800000D03*
X140400000Y-53400000D03*
D20*
X61595000Y-66675000D03*
X66675000Y-66675000D03*
X71755000Y-66675000D03*
X62865000Y-64135000D03*
X69215000Y-61595000D03*
X61595000Y-85725000D03*
X66675000Y-85725000D03*
X71755000Y-85725000D03*
X62865000Y-83185000D03*
X69215000Y-80645000D03*
X99695000Y-47625000D03*
X104775000Y-47625000D03*
X109855000Y-47625000D03*
X100965000Y-45085000D03*
X107315000Y-42545000D03*
X42545000Y-104775000D03*
X47625000Y-104775000D03*
X52705000Y-104775000D03*
X43815000Y-102235000D03*
X50165000Y-99695000D03*
X99695000Y-85725000D03*
X104775000Y-85725000D03*
X109855000Y-85725000D03*
X100965000Y-83185000D03*
X107315000Y-80645000D03*
X42545000Y-123825000D03*
X47625000Y-123825000D03*
X52705000Y-123825000D03*
X43815000Y-121285000D03*
X50165000Y-118745000D03*
X118745000Y-47625000D03*
X123825000Y-47625000D03*
X128905000Y-47625000D03*
X120015000Y-45085000D03*
X126365000Y-42545000D03*
X80645000Y-47625000D03*
X85725000Y-47625000D03*
X90805000Y-47625000D03*
X81915000Y-45085000D03*
X88265000Y-42545000D03*
X42545000Y-47625000D03*
X47625000Y-47625000D03*
X52705000Y-47625000D03*
X43815000Y-45085000D03*
X50165000Y-42545000D03*
X80645000Y-85725000D03*
X85725000Y-85725000D03*
X90805000Y-85725000D03*
X81915000Y-83185000D03*
X88265000Y-80645000D03*
X42545000Y-85725000D03*
X47625000Y-85725000D03*
X52705000Y-85725000D03*
X43815000Y-83185000D03*
X50165000Y-80645000D03*
X61595000Y-123825000D03*
X66675000Y-123825000D03*
X71755000Y-123825000D03*
X62865000Y-121285000D03*
X69215000Y-118745000D03*
X61595000Y-104775000D03*
X66675000Y-104775000D03*
X71755000Y-104775000D03*
X62865000Y-102235000D03*
X69215000Y-99695000D03*
X61595000Y-47625000D03*
X66675000Y-47625000D03*
X71755000Y-47625000D03*
X62865000Y-45085000D03*
X69215000Y-42545000D03*
X99695000Y-123825000D03*
X104775000Y-123825000D03*
X109855000Y-123825000D03*
X100965000Y-121285000D03*
X107315000Y-118745000D03*
X99695000Y-66675000D03*
X104775000Y-66675000D03*
X109855000Y-66675000D03*
X100965000Y-64135000D03*
X107315000Y-61595000D03*
X118745000Y-104775000D03*
X123825000Y-104775000D03*
X128905000Y-104775000D03*
X120015000Y-102235000D03*
X126365000Y-99695000D03*
X80645000Y-104775000D03*
X85725000Y-104775000D03*
X90805000Y-104775000D03*
X81915000Y-102235000D03*
X88265000Y-99695000D03*
X118745000Y-123825000D03*
X123825000Y-123825000D03*
X128905000Y-123825000D03*
X120015000Y-121285000D03*
X126365000Y-118745000D03*
X80645000Y-66675000D03*
X85725000Y-66675000D03*
X90805000Y-66675000D03*
X81915000Y-64135000D03*
X88265000Y-61595000D03*
X80645000Y-123825000D03*
X85725000Y-123825000D03*
X90805000Y-123825000D03*
X81915000Y-121285000D03*
X88265000Y-118745000D03*
X166714214Y-83274214D03*
X166714214Y-80734214D03*
X166714214Y-78194214D03*
X166714214Y-75654214D03*
X166714214Y-73114214D03*
X166714214Y-70574214D03*
X166714214Y-68034214D03*
X166714214Y-65494214D03*
X166714214Y-62954214D03*
X166714214Y-60414214D03*
X166714214Y-57874214D03*
X166714214Y-55334214D03*
X166714214Y-52794214D03*
X166714214Y-50254214D03*
X166714214Y-47714214D03*
X141314214Y-47714214D03*
X141314214Y-50254214D03*
X141314214Y-52794214D03*
X141314214Y-55334214D03*
X141314214Y-57874214D03*
X141314214Y-60414214D03*
X141314214Y-62954214D03*
X141314214Y-65494214D03*
X141314214Y-68034214D03*
X141314214Y-70574214D03*
X141314214Y-73114214D03*
X141314214Y-75654214D03*
X141314214Y-78194214D03*
X141314214Y-80734214D03*
X141314214Y-83274214D03*
X118745000Y-66675000D03*
X123825000Y-66675000D03*
X128905000Y-66675000D03*
X120015000Y-64135000D03*
X126365000Y-61595000D03*
X118745000Y-85725000D03*
X123825000Y-85725000D03*
X128905000Y-85725000D03*
X120015000Y-83185000D03*
X126365000Y-80645000D03*
X99695000Y-104775000D03*
X104775000Y-104775000D03*
X109855000Y-104775000D03*
X100965000Y-102235000D03*
X107315000Y-99695000D03*
X42545000Y-66675000D03*
X47625000Y-66675000D03*
X52705000Y-66675000D03*
X43815000Y-64135000D03*
X50165000Y-61595000D03*
X150190000Y-95670000D03*
X152730000Y-95670000D03*
X155270000Y-95670000D03*
X157810000Y-95670000D03*
M02*
