M48
; DRILL file {KiCad 8.0.6} date 2024-10-21T09:58:38+0700
; FORMAT={-:-/ absolute / metric / decimal}
; #@! TF.CreationDate,2024-10-21T09:58:38+07:00
; #@! TF.GenerationSoftware,Kicad,Pcbnew,8.0.6
; #@! TF.FileFunction,MixedPlating,1,2
FMAT,2
METRIC
; #@! TA.AperFunction,Plated,PTH,ViaDrill
T1C0.300
; #@! TA.AperFunction,Plated,PTH,ComponentDrill
T2C0.762
; #@! TA.AperFunction,Plated,PTH,ComponentDrill
T3C1.000
; #@! TA.AperFunction,Plated,PTH,ComponentDrill
T4C1.500
; #@! TA.AperFunction,NonPlated,NPTH,ComponentDrill
T5C1.750
; #@! TA.AperFunction,NonPlated,NPTH,ComponentDrill
T6C4.000
%
G90
G05
T1
X137.2Y-95.8
X140.4Y-53.4
X156.4Y-67.2
X160.2Y-67.2
T2
X141.314Y-47.714
X141.314Y-50.254
X141.314Y-52.794
X141.314Y-55.334
X141.314Y-57.874
X141.314Y-60.414
X141.314Y-62.954
X141.314Y-65.494
X141.314Y-68.034
X141.314Y-70.574
X141.314Y-73.114
X141.314Y-75.654
X141.314Y-78.194
X141.314Y-80.734
X141.314Y-83.274
X166.714Y-47.714
X166.714Y-50.254
X166.714Y-52.794
X166.714Y-55.334
X166.714Y-57.874
X166.714Y-60.414
X166.714Y-62.954
X166.714Y-65.494
X166.714Y-68.034
X166.714Y-70.574
X166.714Y-73.114
X166.714Y-75.654
X166.714Y-78.194
X166.714Y-80.734
X166.714Y-83.274
T3
X150.19Y-95.67
X152.73Y-95.67
X155.27Y-95.67
X157.81Y-95.67
T4
X43.815Y-45.085
X43.815Y-64.135
X43.815Y-83.185
X43.815Y-102.235
X43.815Y-121.285
X50.165Y-42.545
X50.165Y-61.595
X50.165Y-80.645
X50.165Y-99.695
X50.165Y-118.745
X62.865Y-45.085
X62.865Y-64.135
X62.865Y-83.185
X62.865Y-102.235
X62.865Y-121.285
X69.215Y-42.545
X69.215Y-61.595
X69.215Y-80.645
X69.215Y-99.695
X69.215Y-118.745
X81.915Y-45.085
X81.915Y-64.135
X81.915Y-83.185
X81.915Y-102.235
X81.915Y-121.285
X88.265Y-42.545
X88.265Y-61.595
X88.265Y-80.645
X88.265Y-99.695
X88.265Y-118.745
X100.965Y-45.085
X100.965Y-64.135
X100.965Y-83.185
X100.965Y-102.235
X100.965Y-121.285
X107.315Y-42.545
X107.315Y-61.595
X107.315Y-80.645
X107.315Y-99.695
X107.315Y-118.745
X120.015Y-45.085
X120.015Y-64.135
X120.015Y-83.185
X120.015Y-102.235
X120.015Y-121.285
X126.365Y-42.545
X126.365Y-61.595
X126.365Y-80.645
X126.365Y-99.695
X126.365Y-118.745
T5
X42.545Y-47.625
X42.545Y-66.675
X42.545Y-85.725
X42.545Y-104.775
X42.545Y-123.825
X52.705Y-47.625
X52.705Y-66.675
X52.705Y-85.725
X52.705Y-104.775
X52.705Y-123.825
X61.595Y-47.625
X61.595Y-66.675
X61.595Y-85.725
X61.595Y-104.775
X61.595Y-123.825
X71.755Y-47.625
X71.755Y-66.675
X71.755Y-85.725
X71.755Y-104.775
X71.755Y-123.825
X80.645Y-47.625
X80.645Y-66.675
X80.645Y-85.725
X80.645Y-104.775
X80.645Y-123.825
X90.805Y-47.625
X90.805Y-66.675
X90.805Y-85.725
X90.805Y-104.775
X90.805Y-123.825
X99.695Y-47.625
X99.695Y-66.675
X99.695Y-85.725
X99.695Y-104.775
X99.695Y-123.825
X109.855Y-47.625
X109.855Y-66.675
X109.855Y-85.725
X109.855Y-104.775
X109.855Y-123.825
X118.745Y-47.625
X118.745Y-66.675
X118.745Y-85.725
X118.745Y-104.775
X118.745Y-123.825
X128.905Y-47.625
X128.905Y-66.675
X128.905Y-85.725
X128.905Y-104.775
X128.905Y-123.825
T6
X47.625Y-47.625
X47.625Y-66.675
X47.625Y-85.725
X47.625Y-104.775
X47.625Y-123.825
X66.675Y-47.625
X66.675Y-66.675
X66.675Y-85.725
X66.675Y-104.775
X66.675Y-123.825
X85.725Y-47.625
X85.725Y-66.675
X85.725Y-85.725
X85.725Y-104.775
X85.725Y-123.825
X104.775Y-47.625
X104.775Y-66.675
X104.775Y-85.725
X104.775Y-104.775
X104.775Y-123.825
X123.825Y-47.625
X123.825Y-66.675
X123.825Y-85.725
X123.825Y-104.775
X123.825Y-123.825
M30
