M48
METRIC,TZ
T1C1.750
T2C4.000
%
G90
G05
T1
X42545Y-47625
X42545Y-66675
X42545Y-85725
X42545Y-104775
X42545Y-123825
X52705Y-47625
X52705Y-66675
X52705Y-85725
X52705Y-104775
X52705Y-123825
X61595Y-47625
X61595Y-66675
X61595Y-85725
X61595Y-104775
X61595Y-123825
X71755Y-47625
X71755Y-66675
X71755Y-85725
X71755Y-104775
X71755Y-123825
X80645Y-47625
X80645Y-66675
X80645Y-85725
X80645Y-104775
X80645Y-123825
X90805Y-47625
X90805Y-66675
X90805Y-85725
X90805Y-104775
X90805Y-123825
X99695Y-47625
X99695Y-66675
X99695Y-85725
X99695Y-104775
X99695Y-123825
X109855Y-47625
X109855Y-66675
X109855Y-85725
X109855Y-104775
X109855Y-123825
X118745Y-47625
X118745Y-66675
X118745Y-85725
X118745Y-104775
X118745Y-123825
X128905Y-47625
X128905Y-66675
X128905Y-85725
X128905Y-104775
X128905Y-123825
T2
X47625Y-47625
X47625Y-66675
X47625Y-85725
X47625Y-104775
X47625Y-123825
X66675Y-47625
X66675Y-66675
X66675Y-85725
X66675Y-104775
X66675Y-123825
X85725Y-47625
X85725Y-66675
X85725Y-85725
X85725Y-104775
X85725Y-123825
X104775Y-47625
X104775Y-66675
X104775Y-85725
X104775Y-104775
X104775Y-123825
X123825Y-47625
X123825Y-66675
X123825Y-85725
X123825Y-104775
X123825Y-123825
M30
