M48
METRIC,TZ
T1C0.300
T2C0.762
T3C1.000
T4C1.500
%
G90
G05
T1
X137200Y-95800
X140400Y-53400
X156400Y-67200
X160200Y-67200
T2
X141314Y-47714
X141314Y-50254
X141314Y-52794
X141314Y-55334
X141314Y-57874
X141314Y-60414
X141314Y-62954
X141314Y-65494
X141314Y-68034
X141314Y-70574
X141314Y-73114
X141314Y-75654
X141314Y-78194
X141314Y-80734
X141314Y-83274
X166714Y-47714
X166714Y-50254
X166714Y-52794
X166714Y-55334
X166714Y-57874
X166714Y-60414
X166714Y-62954
X166714Y-65494
X166714Y-68034
X166714Y-70574
X166714Y-73114
X166714Y-75654
X166714Y-78194
X166714Y-80734
X166714Y-83274
T3
X150190Y-95670
X152730Y-95670
X155270Y-95670
X157810Y-95670
T4
X43815Y-45085
X43815Y-64135
X43815Y-83185
X43815Y-102235
X43815Y-121285
X50165Y-42545
X50165Y-61595
X50165Y-80645
X50165Y-99695
X50165Y-118745
X62865Y-45085
X62865Y-64135
X62865Y-83185
X62865Y-102235
X62865Y-121285
X69215Y-42545
X69215Y-61595
X69215Y-80645
X69215Y-99695
X69215Y-118745
X81915Y-45085
X81915Y-64135
X81915Y-83185
X81915Y-102235
X81915Y-121285
X88265Y-42545
X88265Y-61595
X88265Y-80645
X88265Y-99695
X88265Y-118745
X100965Y-45085
X100965Y-64135
X100965Y-83185
X100965Y-102235
X100965Y-121285
X107315Y-42545
X107315Y-61595
X107315Y-80645
X107315Y-99695
X107315Y-118745
X120015Y-45085
X120015Y-64135
X120015Y-83185
X120015Y-102235
X120015Y-121285
X126365Y-42545
X126365Y-61595
X126365Y-80645
X126365Y-99695
X126365Y-118745
M30
