M48
; DRILL file {KiCad 8.0.6} date 2024-10-21T22:04:50+0700
; FORMAT={-:-/ absolute / metric / decimal}
; #@! TF.CreationDate,2024-10-21T22:04:50+07:00
; #@! TF.GenerationSoftware,Kicad,Pcbnew,8.0.6
; #@! TF.FileFunction,Plated,1,2,PTH
FMAT,2
METRIC
; #@! TA.AperFunction,Plated,PTH,ViaDrill
T1C0.300
; #@! TA.AperFunction,Plated,PTH,ComponentDrill
T2C0.762
; #@! TA.AperFunction,Plated,PTH,ComponentDrill
T3C1.000
; #@! TA.AperFunction,Plated,PTH,ComponentDrill
T4C1.500
%
G90
G05
T1
X137.2Y-95.8
X156.4Y-67.2
X160.2Y-67.2
T2
X141.314Y-47.714
X141.314Y-50.254
X141.314Y-52.794
X141.314Y-55.334
X141.314Y-57.874
X141.314Y-60.414
X141.314Y-62.954
X141.314Y-65.494
X141.314Y-68.034
X141.314Y-70.574
X141.314Y-73.114
X141.314Y-75.654
X141.314Y-78.194
X141.314Y-80.734
X141.314Y-83.274
X166.714Y-47.714
X166.714Y-50.254
X166.714Y-52.794
X166.714Y-55.334
X166.714Y-57.874
X166.714Y-60.414
X166.714Y-62.954
X166.714Y-65.494
X166.714Y-68.034
X166.714Y-70.574
X166.714Y-73.114
X166.714Y-75.654
X166.714Y-78.194
X166.714Y-80.734
X166.714Y-83.274
T3
X150.19Y-95.67
X152.73Y-95.67
X155.27Y-95.67
X157.81Y-95.67
T4
X43.815Y-45.085
X43.815Y-64.135
X43.815Y-83.185
X43.815Y-102.235
X43.815Y-121.285
X50.165Y-42.545
X50.165Y-61.595
X50.165Y-80.645
X50.165Y-99.695
X50.165Y-118.745
X62.865Y-45.085
X62.865Y-64.135
X62.865Y-83.185
X62.865Y-102.235
X62.865Y-121.285
X69.215Y-42.545
X69.215Y-61.595
X69.215Y-80.645
X69.215Y-99.695
X69.215Y-118.745
X81.915Y-45.085
X81.915Y-64.135
X81.915Y-83.185
X81.915Y-102.235
X81.915Y-121.285
X88.265Y-42.545
X88.265Y-61.595
X88.265Y-80.645
X88.265Y-99.695
X88.265Y-118.745
X100.965Y-45.085
X100.965Y-64.135
X100.965Y-83.185
X100.965Y-102.235
X100.965Y-121.285
X107.315Y-42.545
X107.315Y-61.595
X107.315Y-80.645
X107.315Y-99.695
X107.315Y-118.745
X120.015Y-45.085
X120.015Y-64.135
X120.015Y-83.185
X120.015Y-102.235
X120.015Y-121.285
X126.365Y-42.545
X126.365Y-61.595
X126.365Y-80.645
X126.365Y-99.695
X126.365Y-118.745
M30
